<svg xmlns="http://www.w3.org/2000/svg" viewBox="0 0 64 64">
  <rect width="64" height="64" rx="12" fill="#000000"/>
  <path d="M7 25h50v26a5 5 0 0 1-5 5H12a5 5 0 0 1-5-5V25Z" fill="#f2bd19"/>
  <path d="M7 28h50v23a5 5 0 0 1-5 5H12a5 5 0 0 1-5-5V28Z" fill="#d99a09"/>
  <path d="M10 28h44" stroke="#ffe36d" stroke-width="2" opacity=".8"/>
  <circle cx="18" cy="18" r="6" fill="#f2bd19" stroke="#a87006" stroke-width="2"/>
  <circle cx="32" cy="18" r="6" fill="#f2bd19" stroke="#a87006" stroke-width="2"/>
  <circle cx="46" cy="18" r="6" fill="#f2bd19" stroke="#a87006" stroke-width="2"/>
  <path d="M14 17.2a4 3 0 0 1 8 0M28 17.2a4 3 0 0 1 8 0M42 17.2a4 3 0 0 1 8 0" fill="none" stroke="#ffe36d" stroke-width="1.5" stroke-linecap="round"/>
</svg>
